<?xml version="1.0" encoding="iso-8859-1"?>
<!-- Generator: Adobe Illustrator 22.0.1, SVG Export Plug-In . SVG Version: 6.00 Build 0)  -->
<svg version="1.1" id="Layer_1" xmlns="http://www.w3.org/2000/svg" xmlns:xlink="http://www.w3.org/1999/xlink" x="0px" y="0px"
	 viewBox="0 0 100.25 100" style="enable-background:new 0 0 100.25 100;" xml:space="preserve">
<g>
	<path d="M95.552,35.176c-0.177-0.543-0.646-0.939-1.211-1.021L64.718,29.85L51.47,3.007c-0.252-0.512-0.774-0.836-1.345-0.836
		s-1.092,0.324-1.345,0.836L35.532,29.85L5.909,34.155c-0.565,0.082-1.034,0.478-1.211,1.021c-0.176,0.543-0.029,1.139,0.38,1.538
		l21.435,20.894l-5.06,29.502c-0.096,0.563,0.135,1.132,0.597,1.468c0.262,0.189,0.571,0.286,0.882,0.286
		c0.239,0,0.479-0.057,0.698-0.172l26.495-13.93l26.495,13.93c0.505,0.266,1.117,0.222,1.58-0.114
		c0.462-0.336,0.693-0.904,0.597-1.468l-5.061-29.502l21.436-20.894C95.581,36.315,95.729,35.719,95.552,35.176z M71.078,56.01
		c-0.354,0.345-0.515,0.841-0.432,1.328l4.68,27.284L50.823,71.74c-0.437-0.229-0.958-0.229-1.396,0L24.924,84.622l4.679-27.284
		c0.083-0.486-0.078-0.983-0.432-1.328L9.349,36.687l27.395-3.981c0.488-0.071,0.911-0.378,1.129-0.82L50.125,7.06l12.252,24.825
		c0.218,0.442,0.641,0.75,1.129,0.82l27.396,3.981L71.078,56.01z"/>
	<path d="M51.47,26.095c-0.252-0.512-0.774-0.836-1.345-0.836s-1.092,0.324-1.345,0.836l-6.059,12.276L29.173,40.34
		c-0.565,0.082-1.034,0.478-1.211,1.021c-0.176,0.543-0.029,1.139,0.38,1.538l9.803,9.556l-2.313,13.492
		c-0.096,0.563,0.135,1.132,0.597,1.468c0.262,0.189,0.571,0.286,0.882,0.286c0.239,0,0.479-0.057,0.698-0.172l12.117-6.37
		l12.117,6.37c0.505,0.266,1.117,0.222,1.58-0.114c0.462-0.336,0.693-0.904,0.597-1.468l-2.314-13.492l9.804-9.556
		c0.409-0.398,0.556-0.995,0.38-1.538c-0.177-0.543-0.646-0.939-1.211-1.021l-13.548-1.969L51.47,26.095z M59.446,50.856
		c-0.354,0.345-0.515,0.841-0.432,1.328l1.934,11.274l-10.125-5.323c-0.437-0.229-0.959-0.229-1.396,0l-10.125,5.323l1.933-11.274
		c0.083-0.486-0.078-0.983-0.432-1.328l-8.191-7.984l11.32-1.645c0.488-0.071,0.911-0.378,1.129-0.82l5.063-10.258l5.063,10.258
		c0.218,0.442,0.641,0.75,1.129,0.82l11.32,1.645L59.446,50.856z"/>
</g>
</svg>
