<svg id="Слой_1" data-name="Слой 1" xmlns="http://www.w3.org/2000/svg" viewBox="0 0 100 100"><title>testМонтажная область 3</title><path d="M51.5,44V41.92c4-.61,7-3.58,7-7.15s-3-6.54-7-7.15V19.13c2.31.51,4,2.15,4,4.11a1.5,1.5,0,1,0,3,0c0-3.57-3-6.54-7-7.15V14a1.5,1.5,0,0,0-3,0v2.08c-4,.61-7,3.58-7,7.15s3,6.54,7,7.14v8.5c-2.3-.51-4-2.16-4-4.11a1.5,1.5,0,0,0-3,0c0,3.57,3,6.54,7,7.15V44a1.5,1.5,0,0,0,3,0Zm4-9.23c0,2-1.69,3.6-4,4.11V30.66C53.81,31.17,55.5,32.82,55.5,34.77Zm-11-11.53c0-2,1.69-3.6,4-4.11v8.21C46.19,26.82,44.5,25.18,44.5,23.23Z"/><path d="M77.5,59s0-.08,0-.13,0-.1,0-.15a1.45,1.45,0,0,0,0-.14s0-.1,0-.14l-.07-.13-.07-.13-.09-.11-.09-.11L77,57.85l-.11-.09-.12-.07-.13-.07-.14,0-.14,0-.15,0-.13,0H76A28.2,28.2,0,0,0,51.5,73V53.45a24.5,24.5,0,1,0-3,0V73A28.2,28.2,0,0,0,24,57.5H24a1.49,1.49,0,0,0-.77.24l0,0-.12.1-.12.1,0,0a1.46,1.46,0,0,0-.15.18v0a1.45,1.45,0,0,0-.12.23l0,.07a1.47,1.47,0,0,0-.06.2s0,.09,0,.13,0,.09,0,.14,0,0,0,0,0,0,0,0a28.22,28.22,0,0,0,26,27.41V95a1.5,1.5,0,0,0,3,0V86.43A28.22,28.22,0,0,0,77.5,59s0,0,0,0S77.5,59,77.5,59Zm-49-30A21.5,21.5,0,1,1,50,50.5,21.52,21.52,0,0,1,28.5,29ZM25.59,60.59A25.22,25.22,0,0,1,48.41,83.41,25.22,25.22,0,0,1,25.59,60.59Zm26,22.82A25.22,25.22,0,0,1,74.41,60.59,25.22,25.22,0,0,1,51.59,83.41Z"/></svg>