<?xml version="1.0" encoding="iso-8859-1"?>
<!-- Generator: Adobe Illustrator 22.0.1, SVG Export Plug-In . SVG Version: 6.00 Build 0)  -->
<svg version="1.1" id="Layer_1" xmlns="http://www.w3.org/2000/svg" xmlns:xlink="http://www.w3.org/1999/xlink" x="0px" y="0px"
	 viewBox="0 0 100.25 100.25" style="enable-background:new 0 0 100.25 100.25;" xml:space="preserve">
<g>
	<path d="M94,31.194c0-4.53-2.372-8.654-6.235-11.728c-0.117-0.127-0.25-0.232-0.397-0.31C83.169,15.977,77.33,14,70.878,14
		c-9.48,0-17.298,3.422-20.911,8.931c-3.643-5.444-11.434-8.826-20.844-8.826c-12.75,0-23.122,7.713-23.122,17.194
		c0,0.093,0.015,0.183,0.017,0.276C6.011,31.633,6,31.69,6,31.75v18.679c0,4.473,2.166,8.591,6.099,11.596
		c8.895,6.794,36.754,26.501,37.034,26.699c0.142,0.1,0.298,0.167,0.459,0.213c0.253,0.194,0.565,0.313,0.908,0.313
		c0.767,0,1.393-0.579,1.482-1.322c5.263-3.751,27.927-19.929,35.82-25.929C91.799,58.959,94,54.813,94,50.325V31.75
		c0-0.072-0.011-0.141-0.021-0.21C93.982,31.424,94,31.31,94,31.194z M29.123,17.105c9.649,0,17.285,3.784,19.452,9.64
		c0.218,0.591,0.791,0.959,1.414,0.979c0.63-0.003,1.191-0.399,1.405-0.992C53.521,20.82,61.169,17,70.878,17
		c5.058,0,9.673,1.333,13.212,3.514l-6.48,4.779c-0.666,0.492-0.809,1.431-0.316,2.097c0.294,0.399,0.748,0.61,1.208,0.61
		c0.31,0,0.621-0.095,0.89-0.293l7.228-5.33C89.353,24.801,91,27.862,91,31.194c0,3.544-1.781,6.857-5.016,9.327
		c-7.978,6.085-31.193,22.711-35.986,26.139c-1.733-1.232-5.875-4.18-10.831-7.727l7.897-6.256c0.649-0.515,0.758-1.458,0.244-2.107
		c-0.514-0.648-1.458-0.758-2.107-0.244l-8.57,6.79c-8.332-5.975-18.093-13.029-22.706-16.566c-3.174-2.433-4.922-5.718-4.922-9.25
		C9.001,23.472,18.028,17.105,29.123,17.105z M49,69.63v15.323c-2.254-1.598-6.33-4.492-11-7.825V61.786
		C43.699,65.864,48.197,69.06,49,69.63z M9,50.429V39.837c0.865,1.119,1.886,2.164,3.098,3.093
		C16.759,46.502,26.622,53.63,35,59.637v15.347c-7.942-5.682-16.764-12.047-21.08-15.344C10.748,57.216,9,53.945,9,50.429z
		 M91,50.325c0,3.529-1.781,6.827-5.015,9.285C78.817,65.06,59.354,78.983,52,84.23V68.916c5.291-3.785,27.92-19.996,35.805-26.01
		c1.253-0.957,2.308-2.034,3.195-3.185V50.325z"/>
	<path d="M53.98,46.607c2.212,0,6.675-2.509,9.02-3.926v6.069c0,0.829,0.672,1.5,1.5,1.5s1.5-0.671,1.5-1.5v-6.5h7.5
		c0.828,0,1.5-0.671,1.5-1.5s-0.672-1.5-1.5-1.5h-7.012c1.399-2.303,4.012-6.907,4.012-9.163c0-3.297-2.691-5.98-6-5.98
		s-6,2.683-6,5.98c0,1.827,1.712,5.189,3.107,7.627c-2.438-1.395-5.8-3.107-7.627-3.107c-3.298,0-5.98,2.691-5.98,6
		S50.683,46.607,53.98,46.607z M64.5,27.107c1.654,0,3,1.337,3,2.98c0,0.998-1.397,3.882-3,6.637c-1.603-2.754-3-5.639-3-6.637
		C61.5,28.444,62.846,27.107,64.5,27.107z M53.98,37.607c0.998,0,3.882,1.397,6.637,3c-2.754,1.603-5.638,3-6.637,3
		c-1.644,0-2.98-1.346-2.98-3S52.337,37.607,53.98,37.607z"/>
</g>
</svg>
